<?xml version="1.0" encoding="utf-8"?>
<!-- Generator: Adobe Illustrator 16.0.3, SVG Export Plug-In . SVG Version: 6.00 Build 0)  -->
<!DOCTYPE svg PUBLIC "-//W3C//DTD SVG 1.1//EN" "http://www.w3.org/Graphics/SVG/1.1/DTD/svg11.dtd">
<svg version="1.1" id="Layer_1" xmlns="http://www.w3.org/2000/svg" xmlns:xlink="http://www.w3.org/1999/xlink" x="0px" y="0px"
	 width="612px" height="792px" viewBox="0 0 612 792" enable-background="new 0 0 612 792" xml:space="preserve">
<title>WB-WBSTL-LONDON-LOGO-WHITE</title>
<path fill="#FFFFFF" d="M535.688,544.626c-2.862,2.851-6.364,4.978-10.212,6.202l-1.982,0.701v-29.077
	c4.262-0.101,8.436,1.238,11.844,3.801c2.607,2.175,4.075,5.421,3.988,8.813C539.426,538.611,538.117,542.047,535.688,544.626
	 M523.494,565.074l1.517-0.466c0.774-0.233,1.554-0.489,2.331-0.769c0.769-0.258,1.537-0.561,2.33-0.863l11.192,28.609h14.433
	l-14.199-34.695c3.379-2.382,6.184-5.488,8.207-9.092c2.086-3.914,3.122-8.299,3.009-12.732c0.055-3.662-0.692-7.291-2.192-10.631
	c-1.436-3.062-3.529-5.77-6.133-7.928c-2.743-2.263-5.916-3.951-9.324-4.967c-3.855-1.174-7.867-1.748-11.893-1.703h-12.195v81.748
	h13.035L523.494,565.074z M486.491,576.338c-1.649,2.336-4.37,3.679-7.229,3.566c-2.787,0.079-5.422-1.266-6.992-3.566
	c-1.891-2.93-2.807-6.384-2.613-9.863v-56.637h-13.034v56.637c0,8.426,2.099,14.883,6.296,19.377c4.196,4.523,10.152,7,16.323,6.783
	c6.246,0.252,12.296-2.224,16.575-6.783c4.198-4.494,6.295-10.951,6.295-19.377v-56.637h-13.055v56.637
	c0.199,3.478-0.709,6.93-2.588,9.863 M415.329,572.605c-2.19-4.881-3.288-12.178-3.288-21.894c0-9.714,1.098-17.036,3.288-21.964
	c2.192-4.896,5.177-7.346,8.956-7.346c3.775,0,6.759,2.45,8.951,7.346c2.191,4.912,3.289,12.232,3.289,21.964
	c0,9.73-1.098,17.029-3.289,21.894c-2.192,4.865-5.176,7.299-8.951,7.299C420.506,579.904,417.521,577.471,415.329,572.605
	 M442.96,582.189c4.538-6.979,6.815-17.471,6.831-31.478c0.017-14.005-2.315-24.513-6.995-31.522
	c-6.114-10.238-19.37-13.582-29.608-7.466c-3.068,1.832-5.632,4.397-7.464,7.466c-4.571,6.993-6.903,17.503-6.995,31.522
	c-0.094,14.021,2.184,24.514,6.832,31.478c6.244,10.264,19.629,13.52,29.893,7.274c2.971-1.811,5.465-4.304,7.272-7.274
	 M381.987,522.452h15.481v-12.614h-43.834v12.614h15.458v69.134h13.056L381.987,522.452z M296.485,572.605
	c-2.191-4.881-3.287-12.178-3.287-21.894c0-9.714,1.096-17.036,3.287-21.964c2.192-4.896,5.176-7.346,8.954-7.346
	c3.777,0,6.753,2.45,8.93,7.346c2.192,4.92,3.311,12.24,3.311,21.964c0,9.723-1.118,17.021-3.311,21.894
	c-2.191,4.873-5.177,7.299-8.93,7.299C301.685,579.904,298.677,577.572,296.485,572.605 M324.021,582.189
	c4.678-6.901,7.02-17.394,7.02-31.478c0-14.083-2.332-24.592-6.995-31.522c-6.1-10.232-19.339-13.582-29.57-7.48
	c-3.076,1.834-5.647,4.404-7.48,7.48c-4.663,6.993-6.994,17.503-6.994,31.522c0,14.021,2.27,24.514,6.808,31.478
	c6.208,10.303,19.591,13.62,29.894,7.414c3.037-1.832,5.582-4.375,7.414-7.414 M272.819,509.908h-13.057v81.748h13.057V509.908z
	 M234.581,570.741c-3.833,5.126-9.784,8.24-16.182,8.465v-56.754c6.465,0.179,12.487,3.327,16.322,8.535
	c3.894,5.871,5.821,12.827,5.502,19.864c0.317,7.072-1.662,14.059-5.642,19.914 M215.928,591.608
	c5.173,0.061,10.31-0.872,15.131-2.75c4.497-1.749,8.543-4.481,11.845-7.999c3.404-3.732,6.013-8.121,7.671-12.895
	c3.7-11.188,3.7-23.271,0-34.46c-1.64-4.808-4.259-9.223-7.694-12.964c-3.305-3.502-7.342-6.232-11.822-7.998
	c-4.804-1.879-9.927-2.812-15.085-2.752h-10.609v81.748L215.928,591.608z M181.349,576.361c-1.648,2.336-4.369,3.68-7.228,3.566
	c-2.788,0.08-5.423-1.264-6.995-3.566c-1.902-2.924-2.817-6.381-2.611-9.864v-56.659h-13.011v56.637
	c0,8.416,2.076,14.876,6.272,19.377c4.2,4.518,10.155,6.993,16.322,6.783c6.276,0.268,12.357-2.219,16.648-6.809
	c4.196-4.492,6.294-10.95,6.294-19.375v-56.613h-13.057v56.637c0.198,3.478-0.708,6.93-2.588,9.863 M131.336,522.452h15.505v-12.614
	H102.82v12.614h15.459v69.134h13.057V522.452z M62.506,540.662c1.963,4.008,4.896,7.463,8.534,10.05l9.606,7.229
	c2.212,1.706,4.175,3.715,5.828,5.968c1.505,2.023,2.322,4.474,2.333,6.995c0.029,2.266-0.805,4.459-2.333,6.133
	c-1.569,1.747-3.83,2.711-6.178,2.635c-3.041,0.118-5.966-1.172-7.927-3.498c-2.208-2.834-3.797-6.097-4.664-9.584l-10.866,6.646
	c1.422,5.632,4.549,10.69,8.954,14.479c4.038,3.143,9.038,4.789,14.153,4.664c2.881,0.008,5.732-0.589,8.37-1.749
	c2.598-1.112,4.97-2.692,6.996-4.665c2.003-2.051,3.587-4.473,4.663-7.133c1.162-2.832,1.748-5.869,1.725-8.93
	c0.047-4.217-1.005-8.369-3.055-12.056c-2.371-3.958-5.549-7.374-9.326-10.026l-8.65-6.552c-2.303-1.602-4.288-3.616-5.853-5.944
	c-1.218-1.885-1.874-4.076-1.889-6.318c-0.039-1.848,0.59-3.644,1.772-5.061c1.214-1.447,3.032-2.249,4.92-2.17
	c2.502-0.088,4.893,1.041,6.412,3.033c1.758,2.422,3.032,5.161,3.754,8.066l11.192-6.785c-1.334-5.072-4.191-9.613-8.185-13.01
	c-3.628-2.713-8.061-4.134-12.591-4.033c-2.699-0.012-5.374,0.529-7.858,1.586c-2.401,0.998-4.581,2.465-6.411,4.312
	c-1.863,1.895-3.338,4.138-4.338,6.599c-1.091,2.664-1.638,5.517-1.608,8.395c0.002,3.707,0.797,7.373,2.332,10.748"/>
<path fill="#FFFFFF" d="M405.654,655.217v-33.436l21.356,33.436h8.768v-46.82h-8.209v33.25l-21.194-33.25h-8.836v46.82H405.654z
	 M361.002,643.885c-4.664-7.385-4.664-16.795,0-24.179c3.675-4.843,10.578-5.788,15.419-2.114c0.8,0.605,1.511,1.316,2.115,2.114
	c4.692,7.376,4.692,16.801,0,24.179c-3.737,4.842-10.693,5.736-15.534,1.998C362.253,645.307,361.581,644.633,361.002,643.885
	 M378.279,654.168c2.558-1.09,4.843-2.729,6.691-4.805c1.933-2.217,3.415-4.791,4.361-7.578c1.094-3.219,1.631-6.602,1.585-10.002
	c0.042-3.408-0.493-6.796-1.585-10.025c-0.945-2.799-2.434-5.385-4.384-7.601c-1.87-2.027-4.164-3.618-6.714-4.665
	c-2.678-1.131-5.559-1.701-8.465-1.678c-2.904-0.023-5.778,0.564-8.44,1.725c-2.548,1.096-4.823,2.736-6.669,4.804
	c-1.959,2.213-3.449,4.798-4.384,7.601c-2.112,6.479-2.112,13.459,0,19.936c0.937,2.785,2.41,5.359,4.337,7.578
	c1.842,2.072,4.121,3.713,6.668,4.803c2.688,1.123,5.576,1.688,8.488,1.656c2.926,0.025,5.827-0.537,8.533-1.656 M330.809,643.652
	c-3.458,3.076-7.995,4.652-12.615,4.383h-3.475v-32.153h3.288c4.62-0.292,9.169,1.268,12.638,4.335
	c3.078,3.076,4.705,7.315,4.476,11.66c0.191,4.343-1.44,8.568-4.497,11.658 M317.588,655.193c3.647,0.047,7.279-0.504,10.748-1.633
	c3.041-0.973,5.85-2.561,8.254-4.662c2.298-2.041,4.115-4.564,5.316-7.393c1.312-3.062,1.964-6.369,1.912-9.699
	c0.045-3.35-0.588-6.674-1.865-9.77c-1.189-2.799-2.971-5.304-5.225-7.346c-2.35-2.076-5.092-3.663-8.064-4.664
	c-3.354-1.113-6.868-1.664-10.401-1.631h-12.17v46.82L317.588,655.193z M267.153,655.193v-33.412l21.335,33.436h8.767v-46.82h-8.091
	v33.25l-21.079-33.25h-8.813v46.82L267.153,655.193z M222.573,643.885c-4.693-7.378-4.693-16.803,0-24.179
	c2.049-2.757,5.286-4.374,8.72-4.361c3.461-0.02,6.729,1.597,8.814,4.361c4.665,7.384,4.665,16.794,0,24.179
	c-2.089,2.752-5.358,4.352-8.814,4.314C227.866,648.23,224.628,646.627,222.573,643.885 M239.827,654.168
	c2.56-1.084,4.847-2.725,6.691-4.805c1.932-2.219,3.413-4.793,4.361-7.578c1.086-3.221,1.615-6.604,1.562-10.002
	c0.05-3.406-0.479-6.796-1.562-10.025c-0.944-2.799-2.434-5.385-4.384-7.601c-1.884-2.021-4.183-3.612-6.738-4.665
	c-2.677-1.131-5.558-1.701-8.464-1.678c-2.896-0.023-5.763,0.564-8.417,1.725c-2.553,1.096-4.837,2.736-6.692,4.804
	c-1.95,2.218-3.439,4.802-4.384,7.601c-2.078,6.484-2.078,13.453,0,19.936c0.936,2.791,2.418,5.367,4.36,7.578
	c1.832,2.074,4.102,3.715,6.645,4.803c2.688,1.121,5.576,1.686,8.487,1.656c2.927,0.025,5.829-0.537,8.534-1.656 M176.313,655.309
	h30.312l1.795-7.205h-23.41v-39.637h-8.697V655.309z"/>
<path fill="#FFFFFF" d="M358.344,212.042c-5.969,0-11.355,2.332-27.979,14.177v64.05c28.912-32.316,37.118-54.42,37.118-65.752
	c0-7.951-3.659-12.475-9.046-12.475 M330.458,147.712v59.224c21.823-12.754,30.311-25.507,30.311-37.306
	c0-11.355-13.034-20.705-30.311-21.824 M384.669,221.392c0,22.104-16.159,58.665-69.437,107.979c-0.561,0.56-1.144,0.28-1.144-0.28
	V129.852c-0.042-0.423,0.267-0.8,0.69-0.842c0.059-0.006,0.115-0.005,0.174,0.002c37.981,2.542,62.348,18.42,62.348,41.363
	c-0.002,9.529-3.543,18.719-9.934,25.788C379.842,199.568,384.669,208.918,384.669,221.392 M298.258,329.09
	c0,0.56-0.583,0.839-1.143,0.28c-15.575-17.86-26.067-39.638-33.155-63.49l-10.773,6.808c-2.82,1.982-5.106,1.143-6.808-1.981
	c-14.433-25.508-23.806-67.455-24.646-96.926c-0.044-1.37,0.469-2.7,1.423-3.684c3.861-4.62,8.029-8.974,12.474-13.034
	c0.84-0.862,1.679-0.28,1.679,1.119c0,36.28,6.249,69.949,16.158,92.123c0.863,1.702,1.702,1.702,2.845,0.839l3.125-1.982
	c-5.969-26.348-9.326-61.485-8.51-102.033c0-1.398,0.279-1.981,1.119-2.542c4.353-2.677,8.905-5.016,13.617-6.995
	c1.421-0.56,1.701-0.28,1.701,0.863c-0.862,58.943,3.964,99.748,14.457,132.344c0.28,0.839,1.119,0.56,1.119-0.28
	c-0.559-11.915-0.559-22.383-0.559-35.138l-0.56-101.893c0-1.142,0.28-1.702,1.399-1.981c4.666-1.151,9.401-2,14.177-2.542
	c0.406-0.069,0.791,0.206,0.859,0.612c0.013,0.075,0.014,0.152,0.003,0.228V329.09z M414.467,171.892
	c0.023-9.224-0.828-18.428-2.543-27.49c-0.279-1.143-0.582-1.562-1.142-1.703l-20.402-5.386l-2.844-11.658
	c-0.14-0.56-0.279-0.979-0.841-1.119l-20.982-5.666l-2.543-11.028c-0.034-0.671-0.496-1.243-1.142-1.422L307.537,96.3
	c-0.894-0.163-1.81-0.163-2.704,0l-54.49,10.12c-0.647,0.179-1.108,0.751-1.143,1.422l-2.542,11.052l-20.984,5.666
	c-0.56,0.14-0.7,0.559-0.839,1.119l-2.845,11.658l-20.402,5.479c-0.559,0.14-0.862,0.56-1.142,1.702
	c-1.708,9.024-2.558,18.19-2.542,27.374c0,81.607,42.506,152.512,106.02,194.738c0.932,1.249,2.699,1.506,3.949,0.575
	c0.218-0.163,0.411-0.357,0.574-0.575C371.959,324.404,414.467,253.521,414.467,171.892"/>
<polygon fill="#FFFFFF" points="88.434,405.521 77.918,459.195 67.776,405.521 55.255,405.521 45.112,459.195 34.736,405.521 
	20.933,405.521 37.814,488.108 51.267,488.108 61.293,435.601 71.319,488.108 84.773,488.108 101.747,405.521 "/>
<path fill="#FFFFFF" d="M114.036,459.918h13.453l-6.739-35.277L114.036,459.918z M112.03,405.521h17.931l16.625,82.587h-13.734
	l-2.937-15.46h-18.42l-2.938,15.46H95.382L112.03,405.521z"/>
<path fill="#FFFFFF" d="M180.464,431.007c0.077-3.438-1.427-6.722-4.081-8.907c-3.495-2.588-7.752-3.943-12.101-3.849v29.379
	l2.005-0.699c3.929-1.226,7.509-3.366,10.446-6.248C179.211,438.079,180.553,434.6,180.464,431.007 M164.282,488.108h-13.336
	v-82.587h12.521c4.112-0.046,8.207,0.527,12.148,1.701c3.482,1.035,6.729,2.738,9.56,5.014c2.649,2.188,4.784,4.936,6.248,8.045
	c1.572,3.361,2.368,7.037,2.332,10.748c0.111,4.475-0.941,8.902-3.054,12.848c-2.075,3.65-4.934,6.797-8.371,9.209l14.502,34.975
	h-14.853l-11.424-28.912c-0.793,0.326-1.586,0.606-2.332,0.887c-0.747,0.28-1.562,0.537-2.332,0.77l-1.539,0.466L164.282,488.108z"
	/>
<polygon fill="#FFFFFF" points="200.749,488.108 200.749,405.521 213.853,405.521 235.327,456.84 235.327,405.521 248.291,405.521 
	248.291,488.108 235.21,488.108 213.736,436.788 213.736,488.108 "/>
<polygon fill="#FFFFFF" points="257.267,488.108 257.267,405.521 296.556,405.521 293.967,418.251 270.605,418.251 270.605,438.911 
	290.074,438.911 290.074,452.015 270.605,452.015 270.605,475.377 296.556,475.377 296.556,488.108 "/>
<path fill="#FFFFFF" d="M332.066,431.007c0.087-3.435-1.41-6.72-4.057-8.907c-3.499-2.583-7.754-3.936-12.102-3.849v29.379
	l2.006-0.699c3.926-1.23,7.504-3.37,10.444-6.248C330.831,438.078,332.164,434.596,332.066,431.007 M315.908,488.108h-13.337
	v-82.587h12.497c4.121-0.044,8.222,0.529,12.172,1.701c3.48,1.035,6.729,2.738,9.559,5.014c2.643,2.188,4.773,4.924,6.25,8.021
	c1.57,3.363,2.366,7.036,2.332,10.749c0.113,4.478-0.949,8.906-3.078,12.847c-2.063,3.658-4.924,6.808-8.371,9.209l14.504,34.976
	h-14.83l-11.447-28.913c-0.794,0.326-1.563,0.607-2.332,0.887l-2.332,0.77l-1.539,0.467L315.908,488.108z"/>
<path fill="#FFFFFF" d="M389.052,452.364l-4.011,0.933v22.312c4.982,0.188,9.89-1.244,13.991-4.079
	c3.481-2.331,5.559-6.257,5.524-10.446c0.209-3.34-1.639-6.471-4.664-7.904c-3.438-1.6-7.342-1.891-10.98-0.815 M399.311,428.419
	c0.076-2.931-1.382-5.688-3.846-7.276c-3.176-1.963-6.832-3.004-10.562-3.008v22.896l2.121-0.465
	c3.417-0.529,6.59-2.092,9.094-4.477C398.162,434.061,399.312,431.299,399.311,428.419 M417.707,461.062
	c0.043,3.764-0.804,7.486-2.471,10.863c-1.683,3.328-4.07,6.248-6.994,8.559c-3.238,2.534-6.912,4.455-10.844,5.665
	c-4.588,1.422-9.371,2.114-14.176,2.052h-11.379v-82.68h11.309c8.908,0,15.996,1.98,21.312,5.945
	c5.109,3.623,8.09,9.546,7.95,15.809c-0.016,2.781-0.703,5.516-2.006,7.974c-1.389,2.696-3.316,5.076-5.664,6.997
	c3.875,1.24,7.25,3.691,9.629,6.993c2.366,3.421,3.584,7.503,3.475,11.657"/>
<path fill="#FFFFFF" d="M453.847,431.007c0.079-3.438-1.426-6.722-4.079-8.907c-3.495-2.588-7.752-3.943-12.102-3.849v29.379
	l2.006-0.699c3.928-1.226,7.509-3.366,10.445-6.248C452.594,438.079,453.936,434.6,453.847,431.007 M437.666,488.108h-13.359
	v-82.587h12.521c4.112-0.046,8.206,0.527,12.149,1.701c3.479,1.035,6.727,2.738,9.559,5.014c2.646,2.182,4.78,4.92,6.25,8.021
	c1.569,3.363,2.365,7.036,2.329,10.749c0.112,4.474-0.942,8.901-3.054,12.847c-2.076,3.65-4.934,6.796-8.371,9.209l14.504,34.976
	h-14.761l-11.425-28.913c-0.791,0.326-1.585,0.607-2.332,0.887c-0.746,0.28-1.561,0.537-2.33,0.77l-1.539,0.467L437.666,488.108z"/>
<path fill="#FFFFFF" d="M498.547,476.238c3.868,0,6.994-2.447,9.161-7.366c2.169-4.919,3.359-12.288,3.359-22.128
	s-1.12-17.23-3.359-22.173c-2.237-4.944-5.293-7.44-9.161-7.44c-3.873,0-6.997,2.473-9.142,7.44
	c-2.146,4.966-3.357,12.333-3.357,22.173s1.118,17.209,3.357,22.128S494.698,476.238,498.547,476.238 M498.547,489.11
	c-7.761,0.146-15.004-3.876-18.98-10.539c-4.664-7.041-6.994-17.644-6.994-31.804s2.33-24.776,6.994-31.851
	c6.387-10.462,20.049-13.765,30.512-7.376c3.011,1.838,5.539,4.367,7.377,7.376c4.663,7.058,6.995,17.674,6.995,31.851
	c0,14.178-2.294,24.777-6.879,31.804c-3.979,6.675-11.231,10.706-19.005,10.562"/>
<path fill="#FFFFFF" d="M530.771,425.807c-0.038-2.914,0.524-5.803,1.653-8.488c2.014-5.005,5.969-8.981,10.961-11.027
	c2.534-1.076,5.264-1.623,8.02-1.609c4.624-0.095,9.146,1.34,12.871,4.08c4.079,3.418,7,8.01,8.37,13.151l-11.449,6.854
	c-0.72-2.938-2.021-5.706-3.823-8.137c-1.555-2.028-3.999-3.176-6.551-3.078c-1.924-0.094-3.777,0.717-5.014,2.191
	c-1.205,1.434-1.851,3.257-1.82,5.131c0.014,2.263,0.686,4.477,1.937,6.364c1.599,2.357,3.622,4.397,5.97,6.015l8.836,6.6
	c3.821,2.694,7.036,6.158,9.442,10.166c2.076,3.708,3.138,7.898,3.078,12.148c0.016,3.096-0.589,6.162-1.772,9.022
	c-1.12,2.7-2.769,5.151-4.851,7.206c-2.066,2.012-4.484,3.631-7.135,4.779c-2.699,1.172-5.611,1.773-8.556,1.771
	c-5.21,0.137-10.311-1.508-14.457-4.664c-4.479-3.814-7.671-8.922-9.139-14.619l11.098-6.738c0.889,3.527,2.52,6.827,4.779,9.676
	c2.001,2.361,4.978,3.668,8.069,3.545c2.395,0.091,4.708-0.883,6.318-2.658c1.544-1.691,2.378-3.912,2.33-6.201
	c0-2.523-0.816-4.977-2.33-6.995c-1.69-2.275-3.692-4.3-5.945-6.017l-9.794-7.321c-3.71-2.603-6.717-6.088-8.744-10.142
	c-1.601-3.401-2.443-7.107-2.471-10.865"/>
<path fill="#FFFFFF" d="M583.16,488.83c-4.365-0.006-7.9-3.549-7.895-7.914c0.002-2.072,0.82-4.062,2.277-5.539
	c3.063-3.09,8.054-3.111,11.146-0.047c3.088,3.064,3.108,8.055,0.045,11.145c-0.015,0.016-0.03,0.033-0.045,0.048
	c-1.45,1.499-3.444,2.342-5.528,2.332"/>
</svg>
